<svg width="365" height="97" viewBox="0 0 365 97" fill="none" xmlns="http://www.w3.org/2000/svg">
<path d="M9.66935 26.4783C8.82369 26.4783 7.94279 26.4079 7.02666 26.2669C6.11053 26.126 5.22963 25.9322 4.38397 25.6855C3.53831 25.4389 2.77193 25.1394 2.08484 24.787L2.61337 18.2596H3.08906L5.04465 22.2765C5.44986 23.1221 5.91673 23.8357 6.44527 24.417C6.97381 24.9808 7.56401 25.4037 8.21587 25.6855C8.86773 25.9498 9.53721 26.0819 10.2243 26.0819C10.8057 26.0819 11.299 26.0027 11.7042 25.8441C12.1094 25.6855 12.4177 25.4477 12.6292 25.1306C12.8582 24.8135 12.9727 24.4435 12.9727 24.0206C12.9727 23.4921 12.823 22.99 12.5234 22.5143C12.2416 22.021 11.7659 21.5101 11.0964 20.9816C10.4445 20.453 9.53721 19.8628 8.37443 19.211C6.7712 18.2067 5.50271 17.3258 4.56896 16.5683C3.63521 15.8107 2.96573 15.106 2.56052 14.4541C2.15531 13.7846 1.9527 13.0887 1.9527 12.3664C1.9527 11.6088 2.13769 10.9041 2.50767 10.2522C2.87764 9.58277 3.40618 9.01018 4.09328 8.5345C4.79799 8.0412 5.62604 7.66241 6.5774 7.39815C7.54639 7.11626 8.62989 6.97532 9.82791 6.97532C10.8674 6.97532 11.8363 7.0546 12.7349 7.21316C13.651 7.37172 14.479 7.59194 15.219 7.87383C15.9766 8.1381 16.602 8.44641 17.0953 8.79877L15.9589 15.0091H15.4833L14.5319 12.6042C14.021 11.3357 13.5012 10.3227 12.9727 9.56515C12.4618 8.78996 11.9068 8.235 11.3078 7.90026C10.7088 7.5479 10.0481 7.37172 9.3258 7.37172C8.60346 7.37172 7.97803 7.45981 7.44949 7.63599C6.93857 7.81217 6.54217 8.06763 6.26028 8.40237C5.99601 8.71949 5.86388 9.11589 5.86388 9.59158C5.86388 10.0849 6.04887 10.587 6.41884 11.0979C6.78882 11.5912 7.40545 12.155 8.26872 12.7892C9.132 13.4059 10.3036 14.137 11.7835 14.9827C12.911 15.6169 13.8536 16.2071 14.6112 16.7533C15.3687 17.2818 15.9766 17.7927 16.4346 18.286C16.9103 18.7617 17.245 19.2462 17.4388 19.7395C17.6326 20.2152 17.7295 20.7261 17.7295 21.2723C17.7295 22.0474 17.571 22.7257 17.2539 23.3071C16.9367 23.8885 16.5051 24.3818 15.9589 24.787C15.4128 25.1922 14.7873 25.5182 14.0826 25.7648C13.3955 26.0115 12.6732 26.1876 11.9156 26.2934C11.1581 26.4167 10.4093 26.4783 9.66935 26.4783ZM24.1517 26.0819V25.8177L25.6052 25.527V7.76812H24.4688C24.0812 7.76812 23.7024 7.90026 23.3324 8.16452C22.9625 8.41118 22.6189 8.78996 22.3018 9.30088C21.9847 9.8118 21.7028 10.4637 21.4561 11.2565L20.2405 14.8769H19.7384L18.8663 7.37172H37.5501L36.678 14.8769H36.1759L34.9867 11.2829C34.7224 10.4901 34.4317 9.83823 34.1146 9.32731C33.7975 8.79877 33.4539 8.41118 33.084 8.16452C32.7316 7.90026 32.3528 7.76812 31.9476 7.76812H30.8377V25.527L32.2647 25.8177V26.0819H24.1517ZM38.8254 26.0819V25.8177L40.2525 25.4213V8.03239L38.8254 7.63599V7.37172H54.8929L53.968 14.5598H53.6773L51.7746 10.0673C51.4222 9.30969 50.9906 8.73711 50.4797 8.34951C49.9687 7.96192 49.4842 7.76812 49.0262 7.76812H45.485V16.4097H46.9385C47.2556 16.4097 47.5551 16.3216 47.837 16.1454C48.1189 15.9693 48.3831 15.7578 48.6298 15.5112C48.9997 15.1236 49.3081 14.6655 49.5547 14.137C49.8014 13.6085 49.9511 13.1504 50.004 12.7628H50.2682V19.5281H50.004L46.8856 16.7004H45.485V25.6855H49.1055C49.7045 25.6855 50.3035 25.4301 50.9025 24.9192C51.5015 24.3906 51.9772 23.6595 52.3295 22.7257L53.6773 18.7881H53.968L54.8929 26.0819H38.8254ZM67.7711 7.37172C69.4095 7.37172 70.7661 7.55671 71.8408 7.92668C72.9331 8.29666 73.7524 8.84281 74.2985 9.56515C74.8447 10.2875 75.1178 11.186 75.1178 12.2607C75.1178 14.0577 74.3426 15.4407 72.7922 16.4097C71.2594 17.3611 69.066 17.8368 66.2119 17.8368C65.701 17.8368 65.2341 17.8279 64.8113 17.8103C64.3884 17.7751 64.0185 17.7399 63.7013 17.7046V17.2025C64.0713 17.3435 64.6175 17.4139 65.3398 17.4139C66.7492 17.4139 67.8416 16.9911 68.6167 16.1454C69.3919 15.2822 69.7795 14.0577 69.7795 12.4721C69.7795 11.4326 69.6298 10.5694 69.3303 9.88227C69.0484 9.19517 68.6256 8.67544 68.0618 8.32309C67.498 7.97073 66.8021 7.79455 65.9741 7.79455C65.7803 7.79455 65.5336 7.80336 65.2341 7.82098C64.9346 7.82098 64.6615 7.82978 64.4149 7.8474C64.1682 7.86502 63.9832 7.89145 63.8599 7.92668V25.527L65.3134 25.8177V26.0819H57.2003V25.8177L58.6274 25.527V7.92668L57.2003 7.63599V7.37172H67.7711ZM9.80148 40.3717V40.636L8.348 40.9267V58.527L9.80148 58.8177V59.0819H1.68843V58.8177L3.11548 58.527V40.9267L1.68843 40.636V40.3717H9.80148ZM11.1782 59.0819V58.8177L13.028 58.527V42.988C13.028 42.5475 12.8607 42.1247 12.5259 41.7195C12.2088 41.2967 11.7595 40.9355 11.1782 40.636V40.3717H17.7849L27.5892 53.3473H28.0121V50.2289C28.0121 49.4185 27.9416 48.6257 27.8007 47.8505C27.6597 47.0577 27.4483 46.3001 27.1664 45.5778C26.8845 44.8379 26.5234 44.1596 26.0829 43.5429C25.6601 42.9087 25.1668 42.3449 24.603 41.8516C24.0392 41.3583 23.3962 40.9531 22.6738 40.636V40.3717H30.549V40.636L28.4085 40.9267V59.0819H25.6072L13.7944 43.6751H13.4244V46.6349C13.4244 47.7096 13.4949 48.7402 13.6359 49.7268C13.7768 50.7134 14.0058 51.6472 14.323 52.5281C14.6401 53.409 15.0365 54.237 15.5122 55.0122C16.0055 55.7698 16.5957 56.4745 17.2828 57.1264C17.9875 57.7606 18.7891 58.3244 19.6876 58.8177V59.0819H11.1782ZM36.6167 59.0819V58.8177L38.0702 58.527V40.7681H36.9338C36.5462 40.7681 36.1674 40.9003 35.7975 41.1645C35.4275 41.4112 35.0839 41.79 34.7668 42.3009C34.4497 42.8118 34.1678 43.4637 33.9212 44.2565L32.7055 47.8769H32.2034L31.3313 40.3717H50.0151L49.143 47.8769H48.6409L47.4517 44.2829C47.1874 43.4901 46.8967 42.8382 46.5796 42.3273C46.2625 41.7988 45.919 41.4112 45.549 41.1645C45.1966 40.9003 44.8178 40.7681 44.4126 40.7681H43.3027V58.527L44.7297 58.8177V59.0819H36.6167ZM60.6001 39.9753C61.9038 39.9753 63.1195 40.1691 64.247 40.5567C65.3746 40.9443 66.3612 41.5345 67.2068 42.3273C68.0525 43.1201 68.7132 44.1331 69.1888 45.3664C69.6645 46.5996 69.9024 48.0619 69.9024 49.7533C69.9024 51.3741 69.6733 52.8012 69.2153 54.0344C68.7572 55.25 68.1053 56.2631 67.2597 57.0735C66.4316 57.8663 65.445 58.4653 64.2999 58.8705C63.1723 59.2757 61.9391 59.4783 60.6001 59.4783C59.2435 59.4783 57.9838 59.2757 56.8211 58.8705C55.6759 58.4477 54.6805 57.8311 53.8348 57.0206C53.0068 56.2102 52.3549 55.1972 51.8792 53.9816C51.4212 52.7659 51.1921 51.3477 51.1921 49.7268C51.1921 48.2469 51.4124 46.908 51.8528 45.7099C52.3109 44.5119 52.9539 43.4901 53.782 42.6444C54.61 41.7812 55.5966 41.1205 56.7418 40.6624C57.9046 40.2043 59.1907 39.9753 60.6001 39.9753ZM60.6001 40.266C59.913 40.266 59.314 40.451 58.8031 40.821C58.2922 41.1733 57.8693 41.7371 57.5346 42.5123C57.1999 43.2699 56.9532 44.2388 56.7946 45.4193C56.6361 46.5997 56.5568 48.0091 56.5568 49.6475C56.5568 51.2684 56.6361 52.6866 56.7946 53.9023C56.9532 55.1003 57.1999 56.0869 57.5346 56.8621C57.8693 57.6197 58.2922 58.1922 58.8031 58.5798C59.314 58.9498 59.913 59.1348 60.6001 59.1348C61.2696 59.1348 61.851 58.9586 62.3443 58.6063C62.8552 58.2363 63.2692 57.6725 63.5863 56.9149C63.9035 56.1397 64.1413 55.1531 64.2999 53.9551C64.4584 52.7571 64.5377 51.3124 64.5377 49.6211C64.5377 47.965 64.4584 46.5468 64.2999 45.3664C64.1413 44.186 63.9035 43.2258 63.5863 42.4859C63.2692 41.7283 62.8552 41.1733 62.3443 40.821C61.851 40.451 61.2696 40.266 60.6001 40.266ZM81.8465 59.0819V58.8177L83.2735 58.5534V40.9003L81.8465 40.636V40.3717H89.9595V40.636L88.5061 40.9003V58.6855H91.4394C91.9151 58.6855 92.3379 58.5534 92.7079 58.2891C93.0955 58.0249 93.4567 57.602 93.7914 57.0206C94.1438 56.4216 94.4961 55.6376 94.8485 54.6687L95.9056 51.3653H96.4077L97.2798 59.0819H81.8465ZM108.107 59.1612C105.446 59.1612 103.42 58.4741 102.029 57.0999C100.654 55.7081 99.9673 53.6997 99.9673 51.0746V40.9003L98.5402 40.636V40.3717H106.838V40.636L105.2 40.9003V50.4668C105.2 52.7043 105.614 54.4132 106.442 55.5936C107.288 56.774 108.486 57.3642 110.036 57.3642C111.481 57.3642 112.582 56.8885 113.339 55.9371C114.114 54.9682 114.502 53.5675 114.502 51.7353V50.0175C114.502 49.1719 114.379 48.2998 114.132 47.4013C113.885 46.4851 113.533 45.613 113.075 44.785C112.617 43.9393 112.071 43.1642 111.437 42.4594C110.82 41.7371 110.142 41.1293 109.402 40.636V40.3717H116.854V40.636L115.004 40.9003V50.8103C115.004 53.5059 114.432 55.576 113.286 57.0206C112.159 58.4477 110.432 59.1612 108.107 59.1612ZM128.677 59.0819V58.8177L130.579 58.527L119.295 40.9267L117.498 40.636V40.3717H127.276V40.636L125.373 40.9003L136.658 58.527L138.455 58.8177V59.0819H128.677ZM117.472 59.0819V58.8177L119.242 58.527L125.558 50.2818L126.245 51.3917H125.373L124.448 52.6602C124.078 53.1535 123.814 53.638 123.656 54.1137C123.497 54.5718 123.418 55.021 123.418 55.4615C123.418 56.2895 123.7 57.0118 124.263 57.6285C124.827 58.2275 125.602 58.6239 126.589 58.8177V59.0819H117.472ZM129.575 47.7977H130.421L131.425 46.4499C131.848 45.9918 132.139 45.5514 132.297 45.1286C132.473 44.7057 132.561 44.3005 132.561 43.9129C132.561 43.3844 132.438 42.8911 132.192 42.433C131.962 41.9749 131.637 41.5874 131.214 41.2702C130.791 40.9531 130.289 40.7417 129.707 40.636V40.3717H138.455V40.636L137.054 40.9003L130.236 48.8283L129.575 47.7977ZM148.908 59.1612C146.248 59.1612 144.222 58.4741 142.83 57.0999C141.456 55.7081 140.769 53.6997 140.769 51.0746V40.9003L139.342 40.636V40.3717H147.64V40.636L146.001 40.9003V50.4668C146.001 52.7043 146.415 54.4132 147.243 55.5936C148.089 56.774 149.287 57.3642 150.838 57.3642C152.282 57.3642 153.383 56.8885 154.141 55.9371C154.916 54.9682 155.304 53.5675 155.304 51.7353V50.0175C155.304 49.1719 155.18 48.2998 154.934 47.4013C154.687 46.4851 154.335 45.613 153.877 44.785C153.419 43.9393 152.872 43.1642 152.238 42.4594C151.622 41.7371 150.943 41.1293 150.203 40.636V40.3717H157.656V40.636L155.806 40.9003V50.8103C155.806 53.5059 155.233 55.576 154.088 57.0206C152.96 58.4477 151.234 59.1612 148.908 59.1612ZM174.605 59.4783C173.936 59.4783 173.31 59.3462 172.729 59.0819C172.165 58.8177 171.645 58.4301 171.17 57.9192C170.712 57.4082 170.298 56.8004 169.928 56.0957C169.54 55.2853 169.091 54.3427 168.58 53.268C168.087 52.1933 167.549 51.0394 166.968 49.8061H165.567V58.527L167.021 58.8177V59.0819H158.908V58.8177L160.335 58.527V40.9003L158.908 40.636V40.3717H169.769C171.231 40.3717 172.456 40.5303 173.442 40.8474C174.429 41.1645 175.169 41.649 175.662 42.3009C176.156 42.9527 176.402 43.7632 176.402 44.7322C176.402 45.7188 176.067 46.5644 175.398 47.2691C174.729 47.9738 173.742 48.52 172.438 48.9076C171.152 49.2952 169.584 49.5066 167.734 49.5418V49.7797C168.58 49.7973 169.337 49.8854 170.007 50.044C170.694 50.1849 171.302 50.3963 171.83 50.6782C172.359 50.9601 172.808 51.3124 173.178 51.7353C173.548 52.1581 173.848 52.6602 174.077 53.2416C174.499 54.2282 174.869 55.0827 175.187 55.805C175.521 56.5097 175.821 57.0647 176.085 57.4699C176.349 57.8751 176.561 58.1218 176.719 58.2099C176.913 58.3508 177.107 58.4037 177.301 58.3684V58.6327C177.036 58.8617 176.737 59.0379 176.402 59.1612C176.067 59.2845 175.742 59.3638 175.424 59.3991C175.125 59.4519 174.852 59.4783 174.605 59.4783ZM166.836 49.1983C167.558 49.1983 168.192 49.1014 168.738 48.9076C169.302 48.7138 169.778 48.4319 170.165 48.0619C170.553 47.692 170.844 47.2427 171.038 46.7142C171.249 46.168 171.355 45.5514 171.355 44.8643C171.355 43.9834 171.214 43.2434 170.932 42.6444C170.65 42.0454 170.245 41.5874 169.716 41.2702C169.188 40.9531 168.536 40.7945 167.761 40.7945C167.32 40.7945 166.924 40.8034 166.571 40.821C166.237 40.8386 165.902 40.8738 165.567 40.9267V49.0662C165.743 49.119 165.928 49.1542 166.122 49.1719C166.316 49.1895 166.554 49.1983 166.836 49.1983ZM183.363 59.0819V58.8177L184.79 58.4213V51.7353L178.976 40.9267L177.602 40.636V40.3717H186.931V40.636L184.816 40.9003L189.6 49.7797H190.102L191.185 47.9827C191.591 47.2779 191.89 46.6173 192.084 46.0006C192.295 45.3664 192.401 44.829 192.401 44.3886C192.401 43.6134 192.181 42.9175 191.74 42.3009C191.3 41.6666 190.613 41.1117 189.679 40.636V40.3717H196.682V40.636L195.308 40.9267L190.023 50.7311V58.4213L191.476 58.8177V59.0819H183.363Z" fill="#FFF8F7"/>
<rect width="78.6199" height="33.0568" rx="16.5284" transform="matrix(-1 0 0 1 162.463 0.0819397)" fill="#292424"/>
<path d="M115.445 6.68866C115.445 7.74036 114.033 9.31082 112.603 10.629C110.764 12.3299 108.568 13.8139 106.049 14.9464C104.161 15.7954 101.871 16.6104 100.029 16.6104M100.029 16.6104C101.871 16.6104 104.163 17.4254 106.049 18.2744C108.568 19.4083 110.764 20.8923 112.603 22.5903C114.033 23.9099 115.445 25.4832 115.445 26.5321M100.029 16.6104L146.276 16.6104" stroke="#FFF8F7" stroke-width="1.65168"/>
<rect x="205.843" y="33.0251" width="66.0672" height="33.0568" rx="16.5284" fill="#FFF8F7"/>
<path d="M246.584 39.6318C246.584 40.6835 247.997 42.254 249.427 43.5722C251.265 45.273 253.462 46.757 255.98 47.8895C257.869 48.7385 260.158 49.5535 262 49.5535M262 49.5535C260.158 49.5535 257.867 50.3685 255.98 51.2175C253.462 52.3515 251.265 53.8355 249.427 55.5335C247.997 56.8531 246.584 58.4264 246.584 59.4752M262 49.5535L215.753 49.5535" stroke="#FB5B39" stroke-width="1.65168"/>
<path d="M288.352 57.868C287.507 57.868 286.626 57.7975 285.71 57.6566C284.793 57.5156 283.913 57.3218 283.067 57.0752C282.221 56.8285 281.455 56.529 280.768 56.1767L281.296 49.6492H281.772L283.728 53.6661C284.133 54.5118 284.6 55.2253 285.128 55.8067C285.657 56.3705 286.247 56.7933 286.899 57.0752C287.551 57.3395 288.22 57.4716 288.907 57.4716C289.489 57.4716 289.982 57.3923 290.387 57.2337C290.792 57.0752 291.101 56.8373 291.312 56.5202C291.541 56.2031 291.656 55.8331 291.656 55.4103C291.656 54.8818 291.506 54.3796 291.206 53.904C290.925 53.4107 290.449 52.8997 289.779 52.3712C289.127 51.8427 288.22 51.2525 287.057 50.6006C285.454 49.5964 284.186 48.7155 283.252 47.9579C282.318 47.2003 281.649 46.4956 281.243 45.8438C280.838 45.1743 280.636 44.4784 280.636 43.756C280.636 42.9985 280.821 42.2938 281.191 41.6419C281.561 40.9724 282.089 40.3998 282.776 39.9241C283.481 39.4308 284.309 39.0521 285.26 38.7878C286.229 38.5059 287.313 38.365 288.511 38.365C289.55 38.365 290.519 38.4442 291.418 38.6028C292.334 38.7614 293.162 38.9816 293.902 39.2635C294.66 39.5277 295.285 39.8361 295.778 40.1884L294.642 46.3987H294.166L293.215 43.9939C292.704 42.7254 292.184 41.7124 291.656 40.9548C291.145 40.1796 290.59 39.6246 289.991 39.2899C289.392 38.9375 288.731 38.7614 288.009 38.7614C287.286 38.7614 286.661 38.8495 286.132 39.0256C285.622 39.2018 285.225 39.4573 284.943 39.792C284.679 40.1091 284.547 40.5055 284.547 40.9812C284.547 41.4745 284.732 41.9766 285.102 42.4876C285.472 42.9809 286.088 43.5446 286.952 44.1789C287.815 44.7955 288.987 45.5266 290.466 46.3723C291.594 47.0065 292.537 47.5967 293.294 48.1429C294.052 48.6714 294.66 49.1824 295.118 49.6757C295.593 50.1513 295.928 50.6358 296.122 51.1291C296.316 51.6048 296.412 52.1157 296.412 52.6619C296.412 53.4371 296.254 54.1154 295.937 54.6968C295.62 55.2782 295.188 55.7715 294.642 56.1767C294.096 56.5819 293.47 56.9078 292.766 57.1545C292.078 57.4011 291.356 57.5773 290.599 57.683C289.841 57.8063 289.092 57.868 288.352 57.868ZM302.835 57.4716V57.2073L304.288 56.9166V39.1578H303.152C302.764 39.1578 302.385 39.2899 302.015 39.5542C301.645 39.8008 301.302 40.1796 300.985 40.6905C300.668 41.2014 300.386 41.8533 300.139 42.6461L298.923 46.2666H298.421L297.549 38.7614H316.233L315.361 46.2666H314.859L313.67 42.6725C313.405 41.8797 313.115 41.2279 312.798 40.717C312.48 40.1884 312.137 39.8008 311.767 39.5542C311.415 39.2899 311.036 39.1578 310.631 39.1578H309.521V56.9166L310.948 57.2073V57.4716H302.835ZM317.508 57.4716V57.2073L318.935 56.8109V39.422L317.508 39.0256V38.7614H333.576L332.651 45.9495H332.36L330.458 41.4569C330.105 40.6993 329.674 40.1268 329.163 39.7392C328.652 39.3516 328.167 39.1578 327.709 39.1578H324.168V47.7994H325.621C325.939 47.7994 326.238 47.7113 326.52 47.5351C326.802 47.3589 327.066 47.1475 327.313 46.9008C327.683 46.5132 327.991 46.0552 328.238 45.5266C328.484 44.9981 328.634 44.54 328.687 44.1524H328.951V50.9177H328.687L325.569 48.0901H324.168V57.0752H327.788C328.387 57.0752 328.986 56.8197 329.585 56.3088C330.184 55.7803 330.66 55.0491 331.012 54.1154L332.36 50.1778H332.651L333.576 57.4716H317.508ZM346.454 38.7614C348.093 38.7614 349.449 38.9464 350.524 39.3163C351.616 39.6863 352.435 40.2325 352.981 40.9548C353.528 41.6771 353.801 42.5756 353.801 43.6503C353.801 45.4474 353.026 46.8304 351.475 47.7994C349.942 48.7507 347.749 49.2264 344.895 49.2264C344.384 49.2264 343.917 49.2176 343.494 49.2C343.071 49.1647 342.701 49.1295 342.384 49.0943V48.5922C342.754 48.7331 343.3 48.8036 344.023 48.8036C345.432 48.8036 346.525 48.3807 347.3 47.5351C348.075 46.6718 348.462 45.4474 348.462 43.8618C348.462 42.8223 348.313 41.959 348.013 41.2719C347.731 40.5848 347.309 40.0651 346.745 39.7127C346.181 39.3604 345.485 39.1842 344.657 39.1842C344.463 39.1842 344.217 39.193 343.917 39.2106C343.618 39.2106 343.344 39.2194 343.098 39.2371C342.851 39.2547 342.666 39.2811 342.543 39.3163V56.9166L343.996 57.2073V57.4716H335.883V57.2073L337.31 56.9166V39.3163L335.883 39.0256V38.7614H346.454ZM168.041 71.7614V72.0256L166.587 72.3163V89.9166L168.041 90.2073V90.4716H159.928V90.2073L161.355 89.9166V72.3163L159.928 72.0256V71.7614H168.041ZM169.418 90.4716V90.2073L171.267 89.9166V74.3776C171.267 73.9372 171.1 73.5143 170.765 73.1091C170.448 72.6863 169.999 72.3251 169.418 72.0256V71.7614H176.024L185.829 84.737H186.251V81.6186C186.251 80.8082 186.181 80.0154 186.04 79.2402C185.899 78.4474 185.688 77.6898 185.406 76.9675C185.124 76.2275 184.763 75.5492 184.322 74.9326C183.9 74.2983 183.406 73.7346 182.842 73.2413C182.279 72.748 181.636 72.3428 180.913 72.0256V71.7614H188.788V72.0256L186.648 72.3163V90.4716H183.847L172.034 75.0647H171.664V78.0245C171.664 79.0992 171.734 80.1299 171.875 81.1165C172.016 82.1031 172.245 83.0368 172.562 83.9177C172.88 84.7986 173.276 85.6267 173.752 86.4019C174.245 87.1594 174.835 87.8641 175.522 88.516C176.227 89.1502 177.029 89.714 177.927 90.2073V90.4716H169.418ZM194.856 90.4716V90.2073L196.31 89.9166V72.1578H195.173C194.786 72.1578 194.407 72.2899 194.037 72.5542C193.667 72.8008 193.323 73.1796 193.006 73.6905C192.689 74.2014 192.407 74.8533 192.161 75.6461L190.945 79.2666H190.443L189.571 71.7614H208.255L207.382 79.2666H206.88L205.691 75.6725C205.427 74.8797 205.136 74.2279 204.819 73.717C204.502 73.1884 204.158 72.8008 203.788 72.5542C203.436 72.2899 203.057 72.1578 202.652 72.1578H201.542V89.9166L202.969 90.2073V90.4716H194.856ZM218.84 71.365C220.143 71.365 221.359 71.5588 222.486 71.9464C223.614 72.3339 224.601 72.9241 225.446 73.717C226.292 74.5098 226.953 75.5228 227.428 76.756C227.904 77.9893 228.142 79.4516 228.142 81.1429C228.142 82.7638 227.913 84.1908 227.455 85.4241C226.997 86.6397 226.345 87.6527 225.499 88.4631C224.671 89.256 223.684 89.855 222.539 90.2602C221.412 90.6654 220.178 90.868 218.84 90.868C217.483 90.868 216.223 90.6654 215.06 90.2602C213.915 89.8373 212.92 89.2207 212.074 88.4103C211.246 87.5999 210.594 86.5868 210.119 85.3712C209.661 84.1556 209.432 82.7373 209.432 81.1165C209.432 79.6366 209.652 78.2976 210.092 77.0996C210.55 75.9016 211.193 74.8797 212.021 74.0341C212.849 73.1708 213.836 72.5101 214.981 72.0521C216.144 71.594 217.43 71.365 218.84 71.365ZM218.84 71.6557C218.152 71.6557 217.553 71.8406 217.043 72.2106C216.532 72.563 216.109 73.1268 215.774 73.9019C215.439 74.6595 215.193 75.6285 215.034 76.8089C214.876 77.9893 214.796 79.3987 214.796 81.0372C214.796 82.658 214.876 84.0763 215.034 85.2919C215.193 86.4899 215.439 87.4765 215.774 88.2517C216.109 89.0093 216.532 89.5819 217.043 89.9695C217.553 90.3395 218.152 90.5244 218.84 90.5244C219.509 90.5244 220.09 90.3483 220.584 89.9959C221.095 89.6259 221.509 89.0622 221.826 88.3046C222.143 87.5294 222.381 86.5428 222.539 85.3448C222.698 84.1468 222.777 82.7021 222.777 81.0108C222.777 79.3547 222.698 77.9364 222.539 76.756C222.381 75.5756 222.143 74.6155 221.826 73.8755C221.509 73.1179 221.095 72.563 220.584 72.2106C220.09 71.8406 219.509 71.6557 218.84 71.6557ZM239.927 90.4716L251.212 72.1842H246.904C246.446 72.1842 246.006 72.3251 245.583 72.607C245.16 72.8889 244.763 73.3117 244.393 73.8755C244.024 74.4393 243.671 75.1792 243.336 76.0954L242.041 79.5044H241.566L240.694 71.7614H256.92L245.636 90.0488H250.234C250.745 90.0488 251.229 89.8902 251.687 89.5731C252.145 89.256 252.577 88.7627 252.982 88.0932C253.387 87.4237 253.757 86.5604 254.092 85.5033L255.07 82.6757H255.546L256.444 90.4716H239.927ZM257.827 90.4716V90.2073L259.28 89.9166L266.653 71.7614H269.957L277.092 89.9166L278.466 90.2073V90.4716H269.587V90.313L271.436 89.9431L265.808 75.6461H265.49L264.248 78.9495C263.755 80.2003 263.376 81.3896 263.112 82.5171C262.865 83.6446 262.742 84.6401 262.742 85.5033C262.742 86.3842 262.874 87.1858 263.138 87.9082C263.42 88.6129 263.852 89.1767 264.433 89.5995C265.032 90.0047 265.799 90.2073 266.732 90.2073V90.4716H257.827ZM262.293 82.9135V82.6492L268.82 82.2V82.9135H262.293ZM279.203 90.4716V90.2073L281.264 89.9166V72.3692L279.388 72.0256V71.7614H286.523L292.68 85.8733L292.231 85.3448H293.156L292.839 85.8733L296.803 71.7614H303.78V72.0256L302.353 72.3163V89.9166L303.78 90.2073V90.4716H295.455V90.2073L297.12 89.9166V74.7212H296.724L291.993 90.4716H289.007L282.083 75.2761H281.66V77.9981C281.66 78.7557 281.713 79.6278 281.819 80.6144C281.942 81.5834 282.118 82.5876 282.347 83.627C282.576 84.6489 282.876 85.6267 283.246 86.5604C283.634 87.4765 284.092 88.2605 284.62 88.9124C285.166 89.5643 285.792 89.9959 286.496 90.2073V90.4716H279.203ZM304.357 90.4716V90.2073L305.811 89.9166L313.184 71.7614H316.487L323.623 89.9166L324.997 90.2073V90.4716H316.117V90.313L317.967 89.9431L312.338 75.6461H312.021L310.779 78.9495C310.286 80.2003 309.907 81.3896 309.643 82.5171C309.396 83.6446 309.273 84.6401 309.273 85.5033C309.273 86.3842 309.405 87.1858 309.669 87.9082C309.951 88.6129 310.383 89.1767 310.964 89.5995C311.563 90.0047 312.33 90.2073 313.263 90.2073V90.4716H304.357ZM308.824 82.9135V82.6492L315.351 82.2V82.9135H308.824ZM328.539 90.4716V90.2073L329.992 89.9166V72.1578H328.856C328.468 72.1578 328.09 72.2899 327.72 72.5542C327.35 72.8008 327.006 73.1796 326.689 73.6905C326.372 74.2014 326.09 74.8533 325.843 75.6461L324.628 79.2666H324.126L323.254 71.7614H341.937L341.065 79.2666H340.563L339.374 75.6725C339.11 74.8797 338.819 74.2279 338.502 73.717C338.185 73.1884 337.841 72.8008 337.471 72.5542C337.119 72.2899 336.74 72.1578 336.335 72.1578H335.225V89.9166L336.652 90.2073V90.4716H328.539ZM344.56 77.9717L343.16 71.7614H346.278L344.904 77.9717H344.56ZM355.916 90.868C355.071 90.868 354.19 90.7975 353.274 90.6566C352.357 90.5156 351.477 90.3218 350.631 90.0752C349.785 89.8285 349.019 89.529 348.332 89.1767L348.86 82.6492H349.336L351.292 86.6661C351.697 87.5118 352.164 88.2253 352.692 88.8067C353.221 89.3705 353.811 89.7933 354.463 90.0752C355.115 90.3395 355.784 90.4716 356.471 90.4716C357.053 90.4716 357.546 90.3923 357.951 90.2337C358.356 90.0752 358.665 89.8373 358.876 89.5202C359.105 89.2031 359.22 88.8331 359.22 88.4103C359.22 87.8818 359.07 87.3796 358.77 86.904C358.489 86.4107 358.013 85.8997 357.343 85.3712C356.691 84.8427 355.784 84.2525 354.621 83.6006C353.018 82.5964 351.75 81.7155 350.816 80.9579C349.882 80.2003 349.213 79.4956 348.807 78.8438C348.402 78.1743 348.2 77.4784 348.2 76.756C348.2 75.9985 348.385 75.2938 348.755 74.6419C349.125 73.9724 349.653 73.3998 350.34 72.9241C351.045 72.4308 351.873 72.0521 352.824 71.7878C353.793 71.5059 354.877 71.365 356.075 71.365C357.114 71.365 358.083 71.4442 358.982 71.6028C359.898 71.7614 360.726 71.9816 361.466 72.2635C362.224 72.5277 362.849 72.8361 363.342 73.1884L362.206 79.3987H361.73L360.779 76.9939C360.268 75.7254 359.748 74.7124 359.22 73.9548C358.709 73.1796 358.154 72.6246 357.555 72.2899C356.956 71.9375 356.295 71.7614 355.573 71.7614C354.85 71.7614 354.225 71.8495 353.696 72.0256C353.186 72.2018 352.789 72.4573 352.507 72.792C352.243 73.1091 352.111 73.5055 352.111 73.9812C352.111 74.4745 352.296 74.9766 352.666 75.4876C353.036 75.9809 353.652 76.5446 354.516 77.1789C355.379 77.7955 356.551 78.5266 358.03 79.3723C359.158 80.0065 360.101 80.5967 360.858 81.1429C361.616 81.6714 362.224 82.1824 362.682 82.6757C363.157 83.1513 363.492 83.6358 363.686 84.1291C363.88 84.6048 363.976 85.1157 363.976 85.6619C363.976 86.4371 363.818 87.1154 363.501 87.6968C363.184 88.2782 362.752 88.7715 362.206 89.1767C361.66 89.5819 361.034 89.9078 360.33 90.1545C359.642 90.4011 358.92 90.5773 358.163 90.683C357.405 90.8063 356.656 90.868 355.916 90.868Z" fill="#FFF8F7"/>
</svg>
