<svg width="1100" height="211" viewBox="0 0 1100 211" fill="none" xmlns="http://www.w3.org/2000/svg">
<path d="M26.72 81.2352C24.16 81.2352 21.4933 81.0219 18.72 80.5952C15.9467 80.1686 13.28 79.5819 10.72 78.8352C8.16 78.0886 5.84 77.1819 3.76 76.1152L5.36 56.3552H6.8L12.72 68.5152C13.9467 71.0752 15.36 73.2352 16.96 74.9952C18.56 76.7019 20.3467 77.9819 22.32 78.8352C24.2933 79.6352 26.32 80.0352 28.4 80.0352C30.16 80.0352 31.6533 79.7952 32.88 79.3152C34.1067 78.8352 35.04 78.1152 35.68 77.1552C36.3733 76.1952 36.72 75.0752 36.72 73.7952C36.72 72.1952 36.2667 70.6752 35.36 69.2352C34.5067 67.7419 33.0667 66.1952 31.04 64.5952C29.0667 62.9952 26.32 61.2085 22.8 59.2352C17.9467 56.1952 14.1067 53.5286 11.28 51.2352C8.45333 48.9419 6.42667 46.8085 5.2 44.8352C3.97333 42.8085 3.36 40.7019 3.36 38.5152C3.36 36.2219 3.92 34.0885 5.04 32.1152C6.16 30.0885 7.76 28.3552 9.84 26.9152C11.9733 25.4219 14.48 24.2752 17.36 23.4752C20.2933 22.6219 23.5733 22.1952 27.2 22.1952C30.3467 22.1952 33.28 22.4352 36 22.9152C38.7733 23.3952 41.28 24.0619 43.52 24.9152C45.8133 25.7152 47.7067 26.6485 49.2 27.7152L45.76 46.5152H44.32L41.44 39.2352C39.8933 35.3952 38.32 32.3285 36.72 30.0352C35.1733 27.6885 33.4933 26.0085 31.68 24.9952C29.8667 23.9285 27.8667 23.3952 25.68 23.3952C23.4933 23.3952 21.6 23.6619 20 24.1952C18.4533 24.7285 17.2533 25.5019 16.4 26.5152C15.6 27.4752 15.2 28.6752 15.2 30.1152C15.2 31.6085 15.76 33.1285 16.88 34.6752C18 36.1685 19.8667 37.8752 22.48 39.7952C25.0933 41.6619 28.64 43.8752 33.12 46.4352C36.5333 48.3552 39.3867 50.1419 41.68 51.7952C43.9733 53.3952 45.8133 54.9419 47.2 56.4352C48.64 57.8752 49.6533 59.3419 50.24 60.8352C50.8267 62.2752 51.12 63.8219 51.12 65.4752C51.12 67.8219 50.64 69.8752 49.68 71.6352C48.72 73.3952 47.4133 74.8886 45.76 76.1152C44.1067 77.3419 42.2133 78.3286 40.08 79.0752C38 79.8219 35.8133 80.3552 33.52 80.6752C31.2267 81.0486 28.96 81.2352 26.72 81.2352ZM70.5613 80.0352V79.2352L74.9613 78.3552V24.5952H71.5213C70.3479 24.5952 69.2013 24.9952 68.0813 25.7952C66.9613 26.5419 65.9213 27.6885 64.9613 29.2352C64.0013 30.7819 63.1479 32.7552 62.4013 35.1552L58.7213 46.1152H57.2013L54.5613 23.3952H111.121L108.481 46.1152H106.961L103.361 35.2352C102.561 32.8352 101.681 30.8619 100.721 29.3152C99.7613 27.7152 98.7213 26.5419 97.6013 25.7952C96.5346 24.9952 95.3879 24.5952 94.1613 24.5952H90.8013V78.3552L95.1213 79.2352V80.0352H70.5613ZM114.982 80.0352V79.2352L119.302 78.0352V25.3952L114.982 24.1952V23.3952H163.622L160.822 45.1552H159.942L154.182 31.5552C153.115 29.2619 151.809 27.5285 150.262 26.3552C148.715 25.1819 147.249 24.5952 145.862 24.5952H135.142V50.7552H139.542C140.502 50.7552 141.409 50.4885 142.262 49.9552C143.115 49.4219 143.915 48.7819 144.662 48.0352C145.782 46.8619 146.715 45.4752 147.462 43.8752C148.209 42.2752 148.662 40.8885 148.822 39.7152H149.622V60.1952H148.822L139.382 51.6352H135.142V78.8352H146.102C147.915 78.8352 149.729 78.0619 151.542 76.5152C153.355 74.9152 154.795 72.7019 155.862 69.8752L159.942 57.9552H160.822L163.622 80.0352H114.982ZM202.607 23.3952C207.567 23.3952 211.674 23.9552 214.927 25.0752C218.234 26.1952 220.714 27.8486 222.367 30.0352C224.02 32.2219 224.847 34.9419 224.847 38.1952C224.847 43.6352 222.5 47.8219 217.807 50.7552C213.167 53.6352 206.527 55.0752 197.887 55.0752C196.34 55.0752 194.927 55.0485 193.647 54.9952C192.367 54.8885 191.247 54.7819 190.287 54.6752V53.1552C191.407 53.5819 193.06 53.7952 195.247 53.7952C199.514 53.7952 202.82 52.5152 205.167 49.9552C207.514 47.3419 208.687 43.6352 208.687 38.8352C208.687 35.6885 208.234 33.0752 207.327 30.9952C206.474 28.9152 205.194 27.3419 203.487 26.2752C201.78 25.2085 199.674 24.6752 197.167 24.6752C196.58 24.6752 195.834 24.7019 194.927 24.7552C194.02 24.7552 193.194 24.7819 192.447 24.8352C191.7 24.8885 191.14 24.9685 190.767 25.0752V78.3552L195.167 79.2352V80.0352H170.607V79.2352L174.927 78.3552V25.0752L170.607 24.1952V23.3952H202.607ZM284.933 23.3952V24.1952L280.533 25.0752V78.3552L284.933 79.2352V80.0352H260.373V79.2352L264.693 78.3552V25.0752L260.373 24.1952V23.3952H284.933ZM289.1 80.0352V79.2352L294.7 78.3552V31.3152C294.7 29.9819 294.193 28.7019 293.18 27.4752C292.22 26.1952 290.86 25.1019 289.1 24.1952V23.3952H309.1L338.78 62.6752H340.06V53.2352C340.06 50.7819 339.847 48.3819 339.42 46.0352C338.993 43.6352 338.353 41.3419 337.5 39.1552C336.647 36.9152 335.553 34.8619 334.22 32.9952C332.94 31.0752 331.447 29.3685 329.74 27.8752C328.033 26.3819 326.087 25.1552 323.9 24.1952V23.3952H347.74V24.1952L341.26 25.0752V80.0352H332.78L297.02 33.3952H295.9V42.3552C295.9 45.6085 296.113 48.7285 296.54 51.7152C296.967 54.7019 297.66 57.5285 298.62 60.1952C299.58 62.8619 300.78 65.3685 302.22 67.7152C303.713 70.0085 305.5 72.1419 307.58 74.1152C309.713 76.0352 312.14 77.7419 314.86 79.2352V80.0352H289.1ZM366.108 80.0352V79.2352L370.508 78.3552V24.5952H367.068C365.895 24.5952 364.748 24.9952 363.628 25.7952C362.508 26.5419 361.468 27.6885 360.508 29.2352C359.548 30.7819 358.695 32.7552 357.948 35.1552L354.268 46.1152H352.748L350.108 23.3952H406.668L404.028 46.1152H402.508L398.908 35.2352C398.108 32.8352 397.228 30.8619 396.268 29.3152C395.308 27.7152 394.268 26.5419 393.148 25.7952C392.081 24.9952 390.935 24.5952 389.708 24.5952H386.348V78.3552L390.668 79.2352V80.0352H366.108ZM438.711 22.1952C442.658 22.1952 446.338 22.7819 449.751 23.9552C453.165 25.1285 456.151 26.9152 458.711 29.3152C461.271 31.7152 463.271 34.7819 464.711 38.5152C466.151 42.2485 466.871 46.6752 466.871 51.7952C466.871 56.7019 466.178 61.0219 464.791 64.7552C463.405 68.4352 461.431 71.5019 458.871 73.9552C456.365 76.3552 453.378 78.1686 449.911 79.3952C446.498 80.6219 442.765 81.2352 438.711 81.2352C434.605 81.2352 430.791 80.6219 427.271 79.3952C423.805 78.1152 420.791 76.2486 418.231 73.7952C415.725 71.3419 413.751 68.2752 412.311 64.5952C410.925 60.9152 410.231 56.6219 410.231 51.7152C410.231 47.2352 410.898 43.1819 412.231 39.5552C413.618 35.9285 415.565 32.8352 418.071 30.2752C420.578 27.6619 423.565 25.6619 427.031 24.2752C430.551 22.8885 434.445 22.1952 438.711 22.1952ZM438.711 23.0752C436.631 23.0752 434.818 23.6352 433.271 24.7552C431.725 25.8219 430.445 27.5285 429.431 29.8752C428.418 32.1685 427.671 35.1019 427.191 38.6752C426.711 42.2485 426.471 46.5152 426.471 51.4752C426.471 56.3819 426.711 60.6752 427.191 64.3552C427.671 67.9819 428.418 70.9686 429.431 73.3152C430.445 75.6086 431.725 77.3419 433.271 78.5152C434.818 79.6352 436.631 80.1952 438.711 80.1952C440.738 80.1952 442.498 79.6619 443.991 78.5952C445.538 77.4752 446.791 75.7686 447.751 73.4752C448.711 71.1286 449.431 68.1419 449.911 64.5152C450.391 60.8885 450.631 56.5152 450.631 51.3952C450.631 46.3819 450.391 42.0885 449.911 38.5152C449.431 34.9419 448.711 32.0352 447.751 29.7952C446.791 27.5019 445.538 25.8219 443.991 24.7552C442.498 23.6352 440.738 23.0752 438.711 23.0752ZM503.029 80.0352V79.2352L507.349 78.4352V24.9952L503.029 24.1952V23.3952H527.589V24.1952L523.189 24.9952V78.8352H532.069C533.509 78.8352 534.789 78.4352 535.909 77.6352C537.082 76.8352 538.175 75.5552 539.189 73.7952C540.255 71.9819 541.322 69.6086 542.389 66.6752L545.589 56.6752H547.109L549.749 80.0352H503.029ZM582.524 80.2752C574.471 80.2752 568.338 78.1952 564.124 74.0352C559.964 69.8219 557.884 63.7419 557.884 55.7952V24.9952L553.564 24.1952V23.3952H578.684V24.1952L573.724 24.9952V53.9552C573.724 60.7285 574.978 65.9019 577.484 69.4752C580.044 73.0486 583.671 74.8352 588.364 74.8352C592.738 74.8352 596.071 73.3952 598.364 70.5152C600.711 67.5819 601.884 63.3419 601.884 57.7952V52.5952C601.884 50.0352 601.511 47.3952 600.764 44.6752C600.018 41.9019 598.951 39.2619 597.564 36.7552C596.178 34.1952 594.524 31.8485 592.604 29.7152C590.738 27.5285 588.684 25.6885 586.444 24.1952V23.3952H609.004V24.1952L603.404 24.9952V54.9952C603.404 63.1552 601.671 69.4219 598.204 73.7952C594.791 78.1152 589.564 80.2752 582.524 80.2752ZM644.794 80.0352V79.2352L650.554 78.3552L616.394 25.0752L610.954 24.1952V23.3952H640.554V24.1952L634.794 24.9952L668.954 78.3552L674.394 79.2352V80.0352H644.794ZM610.874 80.0352V79.2352L616.234 78.3552L635.354 53.3952L637.434 56.7552H634.794L631.994 60.5952C630.874 62.0886 630.074 63.5552 629.594 64.9952C629.114 66.3819 628.874 67.7419 628.874 69.0752C628.874 71.5819 629.728 73.7686 631.434 75.6352C633.141 77.4486 635.488 78.6486 638.474 79.2352V80.0352H610.874ZM647.514 45.8752H650.074L653.114 41.7952C654.394 40.4085 655.274 39.0752 655.754 37.7952C656.288 36.5152 656.554 35.2885 656.554 34.1152C656.554 32.5152 656.181 31.0219 655.434 29.6352C654.741 28.2485 653.754 27.0752 652.474 26.1152C651.194 25.1552 649.674 24.5152 647.914 24.1952V23.3952H674.394V24.1952L670.154 24.9952L649.514 48.9952L647.514 45.8752ZM706.04 80.2752C697.987 80.2752 691.853 78.1952 687.64 74.0352C683.48 69.8219 681.4 63.7419 681.4 55.7952V24.9952L677.08 24.1952V23.3952H702.2V24.1952L697.24 24.9952V53.9552C697.24 60.7285 698.493 65.9019 701 69.4752C703.56 73.0486 707.187 74.8352 711.88 74.8352C716.253 74.8352 719.587 73.3952 721.88 70.5152C724.227 67.5819 725.4 63.3419 725.4 57.7952V52.5952C725.4 50.0352 725.027 47.3952 724.28 44.6752C723.533 41.9019 722.467 39.2619 721.08 36.7552C719.693 34.1952 718.04 31.8485 716.12 29.7152C714.253 27.5285 712.2 25.6885 709.96 24.1952V23.3952H732.52V24.1952L726.92 24.9952V54.9952C726.92 63.1552 725.187 69.4219 721.72 73.7952C718.307 78.1152 713.08 80.2752 706.04 80.2752ZM783.83 81.2352C781.803 81.2352 779.91 80.8352 778.15 80.0352C776.443 79.2352 774.87 78.0619 773.43 76.5152C772.043 74.9686 770.79 73.1286 769.67 70.9952C768.497 68.5419 767.137 65.6885 765.59 62.4352C764.097 59.1819 762.47 55.6885 760.71 51.9552H756.47V78.3552L760.87 79.2352V80.0352H736.31V79.2352L740.63 78.3552V24.9952L736.31 24.1952V23.3952H769.19C773.617 23.3952 777.323 23.8752 780.31 24.8352C783.297 25.7952 785.537 27.2619 787.03 29.2352C788.523 31.2085 789.27 33.6619 789.27 36.5952C789.27 39.5819 788.257 42.1419 786.23 44.2752C784.203 46.4085 781.217 48.0619 777.27 49.2352C773.377 50.4085 768.63 51.0485 763.03 51.1552V51.8752C765.59 51.9285 767.883 52.1952 769.91 52.6752C771.99 53.1019 773.83 53.7419 775.43 54.5952C777.03 55.4485 778.39 56.5152 779.51 57.7952C780.63 59.0752 781.537 60.5952 782.23 62.3552C783.51 65.3419 784.63 67.9286 785.59 70.1152C786.603 72.2486 787.51 73.9286 788.31 75.1552C789.11 76.3819 789.75 77.1286 790.23 77.3952C790.817 77.8219 791.403 77.9819 791.99 77.8752V78.6752C791.19 79.3686 790.283 79.9019 789.27 80.2752C788.257 80.6486 787.27 80.8886 786.31 80.9952C785.403 81.1552 784.577 81.2352 783.83 81.2352ZM760.31 50.1152C762.497 50.1152 764.417 49.8219 766.07 49.2352C767.777 48.6485 769.217 47.7952 770.39 46.6752C771.563 45.5552 772.443 44.1952 773.03 42.5952C773.67 40.9419 773.99 39.0752 773.99 36.9952C773.99 34.3285 773.563 32.0885 772.71 30.2752C771.857 28.4619 770.63 27.0752 769.03 26.1152C767.43 25.1552 765.457 24.6752 763.11 24.6752C761.777 24.6752 760.577 24.7019 759.51 24.7552C758.497 24.8085 757.483 24.9152 756.47 25.0752V49.7152C757.003 49.8752 757.563 49.9819 758.15 50.0352C758.737 50.0885 759.457 50.1152 760.31 50.1152ZM810.342 80.0352V79.2352L814.662 78.0352V57.7952L797.062 25.0752L792.902 24.1952V23.3952H821.142V24.1952L814.742 24.9952L829.222 51.8752H830.742L834.022 46.4352C835.249 44.3019 836.155 42.3019 836.742 40.4352C837.382 38.5152 837.702 36.8885 837.702 35.5552C837.702 33.2085 837.035 31.1019 835.702 29.2352C834.369 27.3152 832.289 25.6352 829.462 24.1952V23.3952H850.662V24.1952L846.502 25.0752L830.502 54.7552V78.0352L834.902 79.2352V80.0352H810.342Z" fill="#FFF8F7"/>
<rect width="238" height="100.07" rx="50.0352" transform="matrix(-1 0 0 1 1100 0)" fill="#292424"/>
<path d="M957.667 20C957.667 23.1837 953.391 27.9379 949.063 31.9283C943.498 37.0772 936.848 41.5696 929.223 44.9979C923.507 47.568 916.577 50.0352 911 50.0352M911 50.0352C916.577 50.0352 923.513 52.5024 929.223 55.0725C936.848 58.5051 943.498 62.9975 949.063 68.1378C953.391 72.1325 957.667 76.8953 957.667 80.0704M911 50.0352L1051 50.0352" stroke="#FFF8F7" stroke-width="5"/>
<rect y="110.07" width="200" height="100.07" rx="50.0352" fill="#FFF8F7"/>
<path d="M123.333 130.07C123.333 133.254 127.609 138.008 131.937 141.999C137.502 147.148 144.152 151.64 151.777 155.068C157.493 157.638 164.423 160.106 170 160.106M170 160.106C164.423 160.106 157.487 162.573 151.777 165.143C144.152 168.576 137.502 173.068 131.937 178.208C127.609 182.203 123.333 186.966 123.333 190.141M170 160.106L30 160.106" stroke="#FB5B39" stroke-width="5"/>
<path d="M236.72 191.306C234.16 191.306 231.493 191.092 228.72 190.666C225.947 190.239 223.28 189.652 220.72 188.906C218.16 188.159 215.84 187.252 213.76 186.186L215.36 166.426H216.8L222.72 178.586C223.947 181.146 225.36 183.306 226.96 185.066C228.56 186.772 230.347 188.052 232.32 188.906C234.293 189.706 236.32 190.106 238.4 190.106C240.16 190.106 241.653 189.866 242.88 189.386C244.107 188.906 245.04 188.186 245.68 187.226C246.373 186.266 246.72 185.146 246.72 183.866C246.72 182.266 246.267 180.746 245.36 179.306C244.507 177.812 243.067 176.266 241.04 174.666C239.067 173.066 236.32 171.279 232.8 169.306C227.947 166.266 224.107 163.599 221.28 161.306C218.453 159.012 216.427 156.879 215.2 154.906C213.973 152.879 213.36 150.772 213.36 148.586C213.36 146.292 213.92 144.159 215.04 142.186C216.16 140.159 217.76 138.426 219.84 136.986C221.973 135.492 224.48 134.346 227.36 133.546C230.293 132.692 233.573 132.266 237.2 132.266C240.347 132.266 243.28 132.506 246 132.986C248.773 133.466 251.28 134.132 253.52 134.986C255.813 135.786 257.707 136.719 259.2 137.786L255.76 156.586H254.32L251.44 149.306C249.893 145.466 248.32 142.399 246.72 140.106C245.173 137.759 243.493 136.079 241.68 135.066C239.867 133.999 237.867 133.466 235.68 133.466C233.493 133.466 231.6 133.732 230 134.266C228.453 134.799 227.253 135.572 226.4 136.586C225.6 137.546 225.2 138.746 225.2 140.186C225.2 141.679 225.76 143.199 226.88 144.746C228 146.239 229.867 147.946 232.48 149.866C235.093 151.732 238.64 153.946 243.12 156.506C246.533 158.426 249.387 160.212 251.68 161.866C253.973 163.466 255.813 165.012 257.2 166.506C258.64 167.946 259.653 169.412 260.24 170.906C260.827 172.346 261.12 173.892 261.12 175.546C261.12 177.892 260.64 179.946 259.68 181.706C258.72 183.466 257.413 184.959 255.76 186.186C254.107 187.412 252.213 188.399 250.08 189.146C248 189.892 245.813 190.426 243.52 190.746C241.227 191.119 238.96 191.306 236.72 191.306ZM280.561 190.106V189.306L284.961 188.426V134.666H281.521C280.348 134.666 279.201 135.066 278.081 135.866C276.961 136.612 275.921 137.759 274.961 139.306C274.001 140.852 273.148 142.826 272.401 145.226L268.721 156.186H267.201L264.561 133.466H321.121L318.481 156.186H316.961L313.361 145.306C312.561 142.906 311.681 140.932 310.721 139.386C309.761 137.786 308.721 136.612 307.601 135.866C306.535 135.066 305.388 134.666 304.161 134.666H300.801V188.426L305.121 189.306V190.106H280.561ZM324.982 190.106V189.306L329.302 188.106V135.466L324.982 134.266V133.466H373.622L370.822 155.226H369.942L364.182 141.626C363.115 139.332 361.809 137.599 360.262 136.426C358.715 135.252 357.249 134.666 355.862 134.666H345.142V160.826H349.542C350.502 160.826 351.409 160.559 352.262 160.026C353.115 159.492 353.915 158.852 354.662 158.106C355.782 156.932 356.715 155.546 357.462 153.946C358.209 152.346 358.662 150.959 358.822 149.786H359.622V170.266H358.822L349.382 161.706H345.142V188.906H356.102C357.915 188.906 359.729 188.132 361.542 186.586C363.355 184.986 364.795 182.772 365.862 179.946L369.942 168.026H370.822L373.622 190.106H324.982ZM412.607 133.466C417.567 133.466 421.674 134.026 424.927 135.146C428.234 136.266 430.714 137.919 432.367 140.106C434.02 142.292 434.847 145.012 434.847 148.266C434.847 153.706 432.5 157.892 427.807 160.826C423.167 163.706 416.527 165.146 407.887 165.146C406.34 165.146 404.927 165.119 403.647 165.066C402.367 164.959 401.247 164.852 400.287 164.746V163.226C401.407 163.652 403.06 163.866 405.247 163.866C409.514 163.866 412.82 162.586 415.167 160.026C417.514 157.412 418.687 153.706 418.687 148.906C418.687 145.759 418.234 143.146 417.327 141.066C416.474 138.986 415.194 137.412 413.487 136.346C411.78 135.279 409.674 134.746 407.167 134.746C406.58 134.746 405.834 134.772 404.927 134.826C404.02 134.826 403.194 134.852 402.447 134.906C401.7 134.959 401.14 135.039 400.767 135.146V188.426L405.167 189.306V190.106H380.607V189.306L384.927 188.426V135.146L380.607 134.266V133.466H412.607ZM494.933 133.466V134.266L490.533 135.146V188.426L494.933 189.306V190.106H470.373V189.306L474.693 188.426V135.146L470.373 134.266V133.466H494.933ZM499.1 190.106V189.306L504.7 188.426V141.386C504.7 140.052 504.193 138.772 503.18 137.546C502.22 136.266 500.86 135.172 499.1 134.266V133.466H519.1L548.78 172.746H550.06V163.306C550.06 160.852 549.847 158.452 549.42 156.106C548.993 153.706 548.353 151.412 547.5 149.226C546.647 146.986 545.553 144.932 544.22 143.066C542.94 141.146 541.447 139.439 539.74 137.946C538.033 136.452 536.087 135.226 533.9 134.266V133.466H557.74V134.266L551.26 135.146V190.106H542.78L507.02 143.466H505.9V152.426C505.9 155.679 506.113 158.799 506.54 161.786C506.967 164.772 507.66 167.599 508.62 170.266C509.58 172.932 510.78 175.439 512.22 177.786C513.713 180.079 515.5 182.212 517.58 184.186C519.713 186.106 522.14 187.812 524.86 189.306V190.106H499.1ZM576.108 190.106V189.306L580.508 188.426V134.666H577.068C575.895 134.666 574.748 135.066 573.628 135.866C572.508 136.612 571.468 137.759 570.508 139.306C569.548 140.852 568.695 142.826 567.948 145.226L564.268 156.186H562.748L560.108 133.466H616.668L614.028 156.186H612.508L608.908 145.306C608.108 142.906 607.228 140.932 606.268 139.386C605.308 137.786 604.268 136.612 603.148 135.866C602.081 135.066 600.935 134.666 599.708 134.666H596.348V188.426L600.668 189.306V190.106H576.108ZM648.711 132.266C652.658 132.266 656.338 132.852 659.751 134.026C663.165 135.199 666.151 136.986 668.711 139.386C671.271 141.786 673.271 144.852 674.711 148.586C676.151 152.319 676.871 156.746 676.871 161.866C676.871 166.772 676.178 171.092 674.791 174.826C673.405 178.506 671.431 181.572 668.871 184.026C666.365 186.426 663.378 188.239 659.911 189.466C656.498 190.692 652.765 191.306 648.711 191.306C644.605 191.306 640.791 190.692 637.271 189.466C633.805 188.186 630.791 186.319 628.231 183.866C625.725 181.412 623.751 178.346 622.311 174.666C620.925 170.986 620.231 166.692 620.231 161.786C620.231 157.306 620.898 153.252 622.231 149.626C623.618 145.999 625.565 142.906 628.071 140.346C630.578 137.732 633.565 135.732 637.031 134.346C640.551 132.959 644.445 132.266 648.711 132.266ZM648.711 133.146C646.631 133.146 644.818 133.706 643.271 134.826C641.725 135.892 640.445 137.599 639.431 139.946C638.418 142.239 637.671 145.172 637.191 148.746C636.711 152.319 636.471 156.586 636.471 161.546C636.471 166.452 636.711 170.746 637.191 174.426C637.671 178.052 638.418 181.039 639.431 183.386C640.445 185.679 641.725 187.412 643.271 188.586C644.818 189.706 646.631 190.266 648.711 190.266C650.738 190.266 652.498 189.732 653.991 188.666C655.538 187.546 656.791 185.839 657.751 183.546C658.711 181.199 659.431 178.212 659.911 174.586C660.391 170.959 660.631 166.586 660.631 161.466C660.631 156.452 660.391 152.159 659.911 148.586C659.431 145.012 658.711 142.106 657.751 139.866C656.791 137.572 655.538 135.892 653.991 134.826C652.498 133.706 650.738 133.146 648.711 133.146ZM712.549 190.106L746.709 134.746H733.669C732.282 134.746 730.949 135.172 729.669 136.026C728.389 136.879 727.189 138.159 726.069 139.866C724.949 141.572 723.882 143.812 722.869 146.586L718.949 156.906H717.509L714.869 133.466H763.989L729.829 188.826H743.749C745.295 188.826 746.762 188.346 748.149 187.386C749.535 186.426 750.842 184.932 752.069 182.906C753.295 180.879 754.415 178.266 755.429 175.066L758.389 166.506H759.829L762.549 190.106H712.549ZM766.734 190.106V189.306L771.134 188.426L793.454 133.466H803.454L825.054 188.426L829.214 189.306V190.106H802.334V189.626L807.934 188.506L790.894 145.226H789.934L786.174 155.226C784.68 159.012 783.534 162.612 782.734 166.026C781.987 169.439 781.614 172.452 781.614 175.066C781.614 177.732 782.014 180.159 782.814 182.346C783.667 184.479 784.974 186.186 786.734 187.466C788.547 188.692 790.867 189.306 793.694 189.306V190.106H766.734ZM780.254 167.226V166.426L800.014 165.066V167.226H780.254ZM831.444 190.106V189.306L837.684 188.426V135.306L832.004 134.266V133.466H853.604L872.244 176.186L870.884 174.586H873.684L872.724 176.186L884.724 133.466H905.844V134.266L901.524 135.146V188.426L905.844 189.306V190.106H880.644V189.306L885.684 188.426V142.426H884.484L870.164 190.106H861.124L840.164 144.106H838.884V152.346C838.884 154.639 839.044 157.279 839.364 160.266C839.737 163.199 840.27 166.239 840.964 169.386C841.657 172.479 842.564 175.439 843.684 178.266C844.857 181.039 846.244 183.412 847.844 185.386C849.497 187.359 851.39 188.666 853.524 189.306V190.106H831.444ZM907.593 190.106V189.306L911.993 188.426L934.313 133.466H944.313L965.913 188.426L970.073 189.306V190.106H943.193V189.626L948.793 188.506L931.753 145.226H930.793L927.033 155.226C925.54 159.012 924.393 162.612 923.593 166.026C922.846 169.439 922.473 172.452 922.473 175.066C922.473 177.732 922.873 180.159 923.673 182.346C924.526 184.479 925.833 186.186 927.593 187.466C929.406 188.692 931.726 189.306 934.553 189.306V190.106H907.593ZM921.113 167.226V166.426L940.873 165.066V167.226H921.113ZM980.796 190.106V189.306L985.196 188.426V134.666H981.756C980.582 134.666 979.436 135.066 978.316 135.866C977.196 136.612 976.156 137.759 975.196 139.306C974.236 140.852 973.382 142.826 972.636 145.226L968.956 156.186H967.436L964.796 133.466H1021.36L1018.72 156.186H1017.2L1013.6 145.306C1012.8 142.906 1011.92 140.932 1010.96 139.386C1010 137.786 1008.96 136.612 1007.84 135.866C1006.77 135.066 1005.62 134.666 1004.4 134.666H1001.04V188.426L1005.36 189.306V190.106H980.796ZM1029.3 152.266L1025.06 133.466H1034.5L1030.34 152.266H1029.3ZM1063.67 191.306C1061.11 191.306 1058.45 191.092 1055.67 190.666C1052.9 190.239 1050.23 189.652 1047.67 188.906C1045.11 188.159 1042.79 187.252 1040.71 186.186L1042.31 166.426H1043.75L1049.67 178.586C1050.9 181.146 1052.31 183.306 1053.91 185.066C1055.51 186.772 1057.3 188.052 1059.27 188.906C1061.25 189.706 1063.27 190.106 1065.35 190.106C1067.11 190.106 1068.61 189.866 1069.83 189.386C1071.06 188.906 1071.99 188.186 1072.63 187.226C1073.33 186.266 1073.67 185.146 1073.67 183.866C1073.67 182.266 1073.22 180.746 1072.31 179.306C1071.46 177.812 1070.02 176.266 1067.99 174.666C1066.02 173.066 1063.27 171.279 1059.75 169.306C1054.9 166.266 1051.06 163.599 1048.23 161.306C1045.41 159.012 1043.38 156.879 1042.15 154.906C1040.93 152.879 1040.31 150.772 1040.31 148.586C1040.31 146.292 1040.87 144.159 1041.99 142.186C1043.11 140.159 1044.71 138.426 1046.79 136.986C1048.93 135.492 1051.43 134.346 1054.31 133.546C1057.25 132.692 1060.53 132.266 1064.15 132.266C1067.3 132.266 1070.23 132.506 1072.95 132.986C1075.73 133.466 1078.23 134.132 1080.47 134.986C1082.77 135.786 1084.66 136.719 1086.15 137.786L1082.71 156.586H1081.27L1078.39 149.306C1076.85 145.466 1075.27 142.399 1073.67 140.106C1072.13 137.759 1070.45 136.079 1068.63 135.066C1066.82 133.999 1064.82 133.466 1062.63 133.466C1060.45 133.466 1058.55 133.732 1056.95 134.266C1055.41 134.799 1054.21 135.572 1053.35 136.586C1052.55 137.546 1052.15 138.746 1052.15 140.186C1052.15 141.679 1052.71 143.199 1053.83 144.746C1054.95 146.239 1056.82 147.946 1059.43 149.866C1062.05 151.732 1065.59 153.946 1070.07 156.506C1073.49 158.426 1076.34 160.212 1078.63 161.866C1080.93 163.466 1082.77 165.012 1084.15 166.506C1085.59 167.946 1086.61 169.412 1087.19 170.906C1087.78 172.346 1088.07 173.892 1088.07 175.546C1088.07 177.892 1087.59 179.946 1086.63 181.706C1085.67 183.466 1084.37 184.959 1082.71 186.186C1081.06 187.412 1079.17 188.399 1077.03 189.146C1074.95 189.892 1072.77 190.426 1070.47 190.746C1068.18 191.119 1065.91 191.306 1063.67 191.306Z" fill="#FFF8F7"/>
</svg>
